<svg width="89" height="100" viewBox="0 0 89 100" fill="none" xmlns="http://www.w3.org/2000/svg">
<path d="M88.1749 0L80.142 89.9895L44.0335 100L8.02445 90.0037L0 0H88.1749Z" fill="#264DE4"/>
<path d="M73.2648 84.2596L80.1295 7.35938H44.0874V92.3487L73.2648 84.2596Z" fill="#2965F1"/>
<path d="M18.396 40.7402L19.3854 51.7787H44.0876V40.7402H18.396Z" fill="#EBEBEB"/>
<path d="M44.0875 18.3984H44.0493H16.408L17.4114 29.4371H44.0875V18.3984Z" fill="#EBEBEB"/>
<path d="M44.0874 80.8921V69.4073L44.039 69.4202L31.7453 66.1007L30.9594 57.2969H24.9856H19.8784L21.4249 74.629L44.0366 80.9062L44.0874 80.8921Z" fill="#EBEBEB"/>
<path d="M57.6421 51.7793L56.3608 66.0954L44.0493 69.4184V80.9027L66.679 74.6309L66.845 72.7659L69.439 43.705L69.7083 40.7408L71.7011 18.3984H44.0493V29.4371H59.6038L58.5994 40.7408H44.0493V51.7793H57.6421Z" fill="white"/>
</svg>
