<svg width="100" height="100" viewBox="0 0 100 100" fill="none" xmlns="http://www.w3.org/2000/svg">
<path d="M100 0H0V100H100V0Z" fill="#F7DF1E"/>
<path d="M67.1745 78.1249C69.1888 81.4138 71.8094 83.8313 76.4444 83.8313C80.338 83.8313 82.8253 81.8853 82.8253 79.1964C82.8253 75.9741 80.2698 74.8329 75.984 72.9583L73.6348 71.9503C66.8539 69.0614 62.3491 65.4424 62.3491 57.7916C62.3491 50.744 67.719 45.3789 76.111 45.3789C82.0856 45.3789 86.3809 47.4583 89.4761 52.9027L82.1586 57.6011C80.5475 54.7122 78.8094 53.5741 76.111 53.5741C73.3587 53.5741 71.6142 55.3202 71.6142 57.6011C71.6142 60.4202 73.3602 61.5614 77.392 63.3075L79.7412 64.3138C87.7253 67.7376 92.2333 71.2281 92.2333 79.0757C92.2333 87.536 85.5872 92.171 76.6618 92.171C67.9348 92.171 62.2967 88.0122 59.538 82.5614L67.1745 78.1249ZM33.9793 78.9392C35.4555 81.5583 36.7983 83.7726 40.0269 83.7726C43.1142 83.7726 45.0618 82.5646 45.0618 77.8678V45.9154H54.4586V77.9948C54.4586 87.7249 48.7539 92.1535 40.4269 92.1535C32.9031 92.1535 28.546 88.2599 26.3301 83.5702L33.9793 78.9392Z" fill="black"/>
</svg>
