<svg width="100" height="60" viewBox="0 0 100 60" fill="none" xmlns="http://www.w3.org/2000/svg">
<path d="M50 0C36.6663 0 28.3331 6.66499 24.9994 19.9937C30 13.3287 35.8334 10.8303 42.4997 12.4959C46.3036 13.4463 49.0221 16.206 52.032 19.2597C56.9339 24.234 62.6072 29.9912 75.0006 29.9912C88.3331 29.9912 96.6675 23.3262 100 9.99623C95.0006 16.6612 89.1672 19.1609 82.4997 17.4953C78.697 16.5449 75.9785 13.7851 72.9686 10.7315C68.0668 5.75715 62.3921 0 50 0V0ZM24.9994 29.9912C11.6669 29.9912 3.3325 36.6562 0 49.9862C4.99937 43.3212 10.8328 40.8215 17.5003 42.4884C21.303 43.44 24.0215 46.1985 27.0314 49.2509C31.9332 54.2252 37.6079 59.9836 50 59.9836C63.3338 59.9836 71.6669 53.3187 75.0006 39.9887C70 46.6537 64.1666 49.1534 57.5003 47.4865C53.6964 46.5374 50.9779 43.7763 47.968 40.724C43.0662 35.7496 37.3928 29.9912 24.9994 29.9912V29.9912Z" fill="#06B6D4"/>
</svg>
