<svg width="100" height="99" viewBox="0 0 100 99" fill="none" xmlns="http://www.w3.org/2000/svg">
<path d="M0.951416 34.4981C0.951416 34.4981 -1.48421 32.7424 1.43854 30.3981L8.24814 24.3091C8.24814 24.3091 10.1966 22.2591 12.2568 24.0452L75.0959 71.6211V94.4348C75.0959 94.4348 75.0655 98.0172 70.4682 97.6215L0.951416 34.4981Z" fill="#2489CA"/>
<path d="M17.1483 49.2031L0.951379 63.9285C0.951379 63.9285 -0.712967 65.1666 0.951379 67.379L8.47138 74.219C8.47138 74.219 10.2575 76.1371 12.8961 73.9552L30.0673 60.9347L17.1483 49.2031Z" fill="#1070B3"/>
<path d="M45.5844 49.326L75.2889 26.6442L75.0961 3.95223C75.0961 3.95223 73.8275 -1.00023 69.5956 1.57748L30.0674 37.5538L45.5844 49.326Z" fill="#0877B9"/>
<path d="M70.4685 97.6524C72.1937 99.4182 74.2843 98.8397 74.2843 98.8397L97.4329 87.4329C100.396 85.4133 99.9801 82.9067 99.9801 82.9067V14.7902C99.9801 11.7964 96.9153 10.7613 96.9153 10.7613L76.8518 1.08978C72.4677 -1.61985 69.5957 1.57691 69.5957 1.57691C69.5957 1.57691 73.2897 -1.08199 75.0962 3.95165V94.0192C75.0962 94.6383 74.9642 95.2472 74.7004 95.7952C74.1726 96.8608 73.0259 97.8553 70.2756 97.4392L70.4685 97.6524Z" fill="#3C99D4"/>
</svg>
